<?xml version="1.0" encoding="utf-8"?>
<!-- Generator: Adobe Illustrator 25.2.1, SVG Export Plug-In . SVG Version: 6.00 Build 0)  -->
<svg version="1.1" id="Layer_1" xmlns="http://www.w3.org/2000/svg" xmlns:xlink="http://www.w3.org/1999/xlink" x="0px" y="0px"
	 viewBox="0 0 612 792" style="enable-background:new 0 0 612 792;" xml:space="preserve">
<style type="text/css">
	.st0{fill:url(#SVGID_1_);}
</style>
<radialGradient id="SVGID_1_" cx="558.3828" cy="297.5107" r="778.7727" gradientUnits="userSpaceOnUse">
	<stop  offset="0" style="stop-color:#4C598C"/>
	<stop  offset="0.5154" style="stop-color:#2A3A66"/>
	<stop  offset="1" style="stop-color:#4C598C"/>
</radialGradient>
<path class="st0" d="M305.96,95.3c-3.48,0-6.92,0.14-10.36,0.26c57.83,38.53,78.98,97.65,78.98,137.87
	c0,35.86-28.31,64.17-64.17,64.17c-34.92,0-64.17-28.31-64.17-64.17c0,0,0,0,0-0.95c0.59-39.9,15.37-94.38-5.94-129.89
	C106.2,132.56,5.96,252.19,5.96,395.3c0,133.52,87.25,246.61,207.83,285.51c22.75-9.52,39.05-31.76,39.05-58.57V451.43h-64.17V442
	h64.17h128.34h64.17v9.43h-64.17v135.9v13.21c-3.78,4.72-8.49,8.49-13.21,12.27c-0.94,1.89-1.89,2.83-3.78,3.78
	c-2.83,2.83-5.66,5.66-9.43,8.49c-0.95,0.95-2.83,2.83-4.73,3.78c-2.82,2.83-6.6,4.72-9.43,7.55c-1.88,0.95-2.83,1.89-4.72,2.83
	c-3.78,2.83-7.55,5.66-11.33,8.5c-0.94,0.94-1.88,0.94-2.83,1.89c-10.37,6.6-21.7,12.27-33.03,17.93c0,0-0.94,0-1.88,0.94
	c-4.72,1.89-9.44,4.72-15.1,6.6c-0.94,0-0.94,0.95-1.88,0.95c-5.67,1.89-11.33,3.78-16.04,5.66c-0.95,0-0.95,0-0.95,0.94
	c-5.28,1.71-10.74,3.08-16.17,4.53c22.25,5.26,45.43,8.13,69.29,8.13c165.69,0,300-134.31,300-300S471.64,95.3,305.96,95.3z"/>
</svg>
